# AST/ASF file generated using VICON BodyLanguage
# -----------------------------------------------
:version 1.10
:name VICON
:units
  mass 1.0
  length 0.45
  angle deg
:documentation
   .ast/.asf automatically generated from VICON data using
   VICON BodyBuilder and BodyLanguage model FoxedUp or BRILLIANT.MOD
:root
   order TX TY TZ RX RY RZ
   axis XYZ
   position 0 0 0  
   orientation 0 0 0 
:bonedata
  begin
     id 1 
     name lhipjoint
     direction 0.576517 -0.752066 0.319413 
     length 2.45433 
     axis 0 0 0  XYZ
  end
  begin
     id 2 
     name lfemur
     direction 0.34202 -0.939693 0  
     length 7.54459  
     axis 0 0 20  XYZ
    dof rx ry rz
    limits (-160.0 20.0)
           (-70.0 70.0)
           (-60.0 70.0)
  end
  begin
     id 3 
     name ltibia
     direction 0.34202 -0.939693 0   
     length 7.73986   
     axis 0 0 20   XYZ
    dof rx
    limits (-10.0 170.0)
  end
  begin
     id 4 
     name lfoot
     direction 0.090693 -0.249177 0.964202   
     length 2.28437   
     axis -90 7.62852e-016 20   XYZ
    dof rx rz
    limits (-45.0 90.0)
           (-70.0 20.0)
  end
  begin
     id 5 
     name ltoes
     direction 1.5356e-011 -4.21928e-011 1   
     length 1.14243   
     axis -90 7.62852e-016 20   XYZ
    dof rx
    limits (-90.0 20.0)
  end
  begin
     id 6 
     name rhipjoint
     direction -0.573937 -0.753736 0.320122   
     length 2.44889  
     axis 0 0 0  XYZ 
  end
  begin
     id 7 
     name rfemur
     direction -0.34202 -0.939693 0   
     length 7.50166   
     axis 0 0 -20   XYZ
    dof rx ry rz
    limits (-160.0 20.0)
           (-70.0 70.0)
           (-70.0 60.0)
  end
  begin
     id 8 
     name rtibia
     direction -0.34202 -0.939693 0   
     length 7.54266   
     axis 0 0 -20   XYZ
    dof rx
    limits (-10.0 170.0)
 end
 begin
     id 9 
     name rfoot
     direction -0.114017 -0.31326 0.942798   
     length 2.34212  
     axis -90 -7.62852e-016 -20   XYZ
    dof rx rz
    limits (-45.0 90.0)
           (-20.0 70.0)
  end
  begin
     id 10 
     name rtoes
     direction -1.53557e-011 -4.21867e-011 1   
     length 1.16246   
     axis -90 -7.62852e-016 -20   XYZ
    dof rx
    limits (-90.0 20.0)
  end
  begin
     id 11 
     name lowerback
     direction -0.0228371 0.999155 -0.034167   
     length 2.0537   
     axis 0 0 0   XYZ
    dof rx ry rz
    limits (-20.0 45.0)
           (-30.0 30.0)
           (-30.0 30.0)
  end
  begin
     id 12 
     name upperback
     direction 0.0198981 0.999794 0.00389455   
     length 2.05302   
     axis 0 0 0   XYZ
    dof rx ry rz
    limits (-20.0 45.0)
           (-30.0 30.0)
           (-30.0 30.0)
  end
  begin
     id 13 
     name thorax
     direction 0.0304566 0.99935 0.0192987   
     length 2.05315   
     axis 0 0 0   XYZ
    dof rx ry rz
    limits (-20.0 45.0)
           (-30.0 30.0)
           (-30.0 30.0)
  end
  begin
     id 14 
     name lowerneck
     direction -0.0196762 0.99417 0.106017   
     length 1.82056   
     axis 0 0 0   XYZ
    dof rx ry rz
    limits (-20.0 45.0)
           (-30.0 30.0)
           (-30.0 30.0)
  end
  begin
     id 15 
     name upperneck
     direction 0.00517787 0.9802 -0.197944   
     length 1.83835   
     axis 0 0 0   XYZ
    dof rx ry rz
    limits (-20.0 45.0)
           (-30.0 30.0)
           (-30.0 30.0)
  end
  begin
     id 16
     name head
     direction 0.00211419 0.996945 -0.078081  
     length 1.85629  
     axis 0 0 0   XYZ
    dof rx ry rz
    limits (-20.0 45.0)
           (-30.0 30.0)
           (-30.0 30.0)
  end
  begin
     id 17 
     name lclavicle
     direction 0.930001 0.365811 -0.0357824  
     length 3.81961  
     axis 0 0 0   XYZ
    dof ry rz
    limits (-20.0 10.0)
           (0.0 20.0)
  end
  begin
     id 18 
     name lhumerus
     direction 1 -4.48968e-011 -3.06644e-027   
     length 5.14507   
     axis 180 -30 -90   XYZ
    dof rx ry rz
    limits (-60.0 90.0)
           (-90.0 90.0)
           (-90.0 90.0)
  end
  begin
     id 19
     name lradius
     direction 1 -4.48965e-011 9.06925e-028   
     length 3.50646   
     axis 180 -30 -90   XYZ
    dof rx
    limits (-10.0 170.0)
  end
  begin
     id 20
     name lwrist
     direction 1 -4.48957e-011 1.03922e-027   
     length 1.75323   
     axis -2.56395e-016 90 90   XYZ
    dof ry
    limits (-180.0 0.0)
 end
  begin
     id 21 
     name lhand
     direction 1 -4.48967e-011 2.08017e-027   
     length 0.629969   
     axis -1.32723e-015 90 90   XYZ
    dof rx rz
    limits (-90.0 90.0)
           (-45.0 45.0)
  end
  begin
     id 22 
     name lfingers
     direction 1 -4.49089e-011 4.20095e-027   
     length 0.507897   
     axis -2.6545e-015 90 90   XYZ
    dof rx
    limits (0.0 90.0)
  end
  begin
     id 23
     name lthumb
     direction 0.707107 -6.35001e-011 0.707107   
     length 0.729241   
     axis -90 45 5.05613e-014   XYZ
    dof rx rz
    limits (-45.0 45.0)
           (-45.0 45.0)
  end
  begin
     id 24 
     name rclavicle
     direction -0.881882 0.464123 -0.0829113   
     length 3.47515  
     axis 0 0 0   XYZ 
    dof ry rz
    limits (-10.0 20.0)
           (-20.0 0.0)
  end
  begin
     id 25 
     name rhumerus
     direction -1 -4.48961e-011 -1.55672e-027  
     length 5.232   
     axis 180 30 90   XYZ
    dof rx ry rz
    limits (-90.0 60.0)
           (-90.0 90.0)
           (-90.0 90.0)
  end
  begin
     id 26 
     name rradius
     direction -1 -4.48963e-011 6.18178e-029   
     length 3.65641   
     axis 180 30 90   XYZ
    dof rx
    limits (-10.0 170.0)
  end
  begin
     id 27 
     name rwrist
     direction -1 -4.48982e-011 1.04136e-027   
     length 1.8282   
     axis -2.56395e-016 -90 -90   XYZ
    dof ry
    limits (-180.0 0.0)
  end
  begin
     id 28
     name rhand
     direction -1 -4.48929e-011 2.07378e-027   
     length 0.656807   
     axis -1.32723e-015 -90 -90   XYZ
    dof rx rz
    limits (-90.0 90.0)
           (-45.0 45.0)
  end
  begin
     id 29
     name rfingers
     direction -1 -4.489e-011 4.13816e-027   
     length 0.529535   
     axis -2.6545e-015 -90 -90   XYZ
    dof rx
    limits (0.0 90.0)
  end
  begin
     id 30
     name rthumb
     direction -0.707107 -6.34843e-011 0.707107   
     length 0.760309   
     axis -90 -45 -5.05613e-014   XYZ
    dof rx rz
    limits (-45.0 45.0)
           (-45.0 45.0)
  end
:hierarchy
  begin
    root lhipjoint rhipjoint lowerback
    lhipjoint lfemur
    lfemur ltibia
    ltibia lfoot
    lfoot ltoes
    rhipjoint rfemur
    rfemur rtibia
    rtibia rfoot
    rfoot rtoes
    lowerback upperback
    upperback thorax
    thorax lowerneck lclavicle rclavicle
    lowerneck upperneck
    upperneck head
    lclavicle lhumerus
    lhumerus lradius
    lradius lwrist
    lwrist lhand lthumb
    lhand lfingers
    rclavicle rhumerus
    rhumerus rradius
    rradius rwrist
    rwrist rhand rthumb
    rhand rfingers
  end

#!OML:ASF H:\ManfredETheater\Project 1\Capture day 1\Session 1\subject.ASF
:FULLY-SPECIFIED
:DEGREES
16
root 2.36752 16.212 -44.4133 28.3983 -5.9326 3.79946
lowerback 13.7598 -1.64696 0.251268
upperback -1.63039 -2.03468 1.23033
thorax -9.46419 -0.951042 1.62134
lowerneck -21.7316 1.50224 -0.383136
upperneck -0.988705 2.27455 -3.95953
head 3.10977 0.897338 -0.980469
rclavicle 8.94531e-015 -3.4191e-014
rhumerus -64.9832 -0.34695 -85.9961
rradius 87.0906
rwrist -6.1978
rhand -31.3046 7.75495
rfingers 7.12502
rthumb -4.57725 -22.1756
lclavicle 8.94531e-015 -3.4191e-014
lhumerus -26.9832 -18.2898 99.3951
lradius 118.43
lwrist 13.8478
lhand -27.3238 -19.7904
lfingers 7.12502
lthumb -0.732817 10.1881
rfemur -50.1447 -11.6024 16.5482
rtibia 91.1606
rfoot -15.2026 -10.4449
rtoes -30.8874
lfemur -36.2185 -1.72994 -28.9478
ltibia 62.7859
lfoot -29.0625 -14.8683
ltoes 1.54877
17
root 2.32498 16.248 -44.0762 28.4037 -5.55856 4.15381
lowerback 13.6353 -1.90744 -0.00424755
upperback -1.64635 -2.41335 1.36584
thorax -9.38446 -1.11623 1.98774
lowerneck -21.7496 1.67869 -0.254658
upperneck -1.00511 2.49195 -4.26743
head 3.1187 0.987946 -1.0779
rclavicle 5.78463e-014 -1.43125e-014
rhumerus -67.8038 -0.345886 -84.6387
rradius 88.4328
rwrist -7.33391
rhand -31.0292 8.12664
rfingers 7.12502
rthumb -4.31132 -21.8095
lclavicle 5.78463e-014 -1.43125e-014
lhumerus -25.2129 -18.2534 99.161
lradius 121.341
lwrist 13.9376
lhand -27.6043 -19.8774
lfingers 7.12502
lthumb -1.00376 10.1
rfemur -53.328 -11.7491 16.3289
rtibia 91.7434
rfoot -15.6376 -10.6443
rtoes -30.9642
lfemur -33.9323 -2.05317 -29.0091
ltibia 60.6253
lfoot -28.505 -15.3411
ltoes 1.36294
18
root 2.28223 16.2907 -43.7274 28.4268 -5.25379 4.44427
lowerback 13.4377 -2.17976 -0.219086
upperback -1.67262 -2.80009 1.51265
thorax -9.26958 -1.28836 2.33968
lowerneck -21.7577 1.90217 -0.100888
upperneck -0.984514 2.76728 -4.58576
head 3.14065 1.10618 -1.1773
rclavicle 2.44505e-014 3.97569e-016
rhumerus -70.5059 -0.117413 -83.4173
rradius 89.7696
rwrist -8.22459
rhand -30.7046 8.50895
rfingers 7.12502
rthumb -3.99785 -21.4333
lclavicle 2.44505e-014 3.97569e-016
lhumerus -23.7073 -18.2389 98.8116
lradius 124.29
lwrist 14.129
lhand -27.9132 -19.9143
lfingers 7.12502
lthumb -1.30206 10.0615
rfemur -56.3527 -11.7792 16.1297
rtibia 91.8118
rfoot -16.0309 -10.6952
rtoes -31.0913
lfemur -31.5978 -2.33247 -29.0242
ltibia 58.3169
lfoot -27.6981 -15.7847
ltoes 0.727317
19
root 2.23936 16.3382 -43.3681 28.4583 -5.03118 4.65167
lowerback 13.1867 -2.45421 -0.369675
upperback -1.70952 -3.17879 1.66182
thorax -9.13417 -1.46112 2.65074
lowerneck -21.7571 2.15697 0.0543383
upperneck -0.912937 3.0845 -4.8742
head 3.17895 1.24599 -1.26353
rclavicle 4.31363e-014 -2.98177e-014
rhumerus -73.0556 0.260975 -82.3208
rradius 91.0186
rwrist -8.73284
rhand -30.3825 8.89267
rfingers 7.12502
rthumb -3.6868 -21.0552
lclavicle 4.31363e-014 -2.98177e-014
lhumerus -22.483 -18.2959 98.3225
lradius 127.213
lwrist 14.4732
lhand -28.1927 -19.9509
lfingers 7.12502
lthumb -1.57205 10.023
rfemur -59.1777 -11.671 15.9548
rtibia 91.3812
rfoot -16.3916 -10.6139
rtoes -31.2598
lfemur -29.2118 -2.57368 -28.98
ltibia 55.894
lfoot -26.5463 -16.2129
ltoes -0.150558
20
root 2.19681 16.3913 -42.9984 28.4855 -4.91023 4.76334
lowerback 12.8984 -2.71032 -0.440423
upperback -1.74481 -3.52101 1.80164
thorax -8.97859 -1.62193 2.89367
lowerneck -21.7773 2.42056 0.195669
upperneck -0.786466 3.41716 -5.11113
head 3.23758 1.39483 -1.32943
rclavicle 5.02925e-014 -1.43125e-014
rhumerus -75.4127 0.700886 -81.3278
rradius 92.1357
rwrist -8.81958
rhand -30.0789 9.27536
rfingers 7.12502
rthumb -3.39363 -20.6774
lclavicle 5.02925e-014 -1.43125e-014
lhumerus -21.5255 -18.4821 97.6923
lradius 130.029
lwrist 14.9722
lhand -28.3894 -20.0199
lfingers 7.12502
lthumb -1.76195 9.95256
rfemur -61.7569 -11.4091 15.8081
rtibia 90.4565
rfoot -16.6814 -10.4686
rtoes -31.5904
lfemur -26.8067 -2.77928 -28.8799
ltibia 53.4092
lfoot -25.0185 -16.6059
ltoes -1.35936
21
root 2.15494 16.4526 -42.6176 28.4785 -4.90641 4.77992
lowerback 12.613 -2.92736 -0.434842
upperback -1.76883 -3.80074 1.92414
thorax -8.8191 -1.7577 3.05922
lowerneck -21.8228 2.67349 0.3083
upperneck -0.610309 3.74289 -5.29355
head 3.31433 1.54169 -1.37355
rclavicle 2.22639e-014 -2.26615e-014
rhumerus -77.5487 1.1308 -80.4084
rradius 93.0983
rwrist -8.55108
rhand -29.7903 9.66006
rfingers 7.12502
rthumb -3.11492 -20.2969
lclavicle 2.22639e-014 -2.26615e-014
lhumerus -20.8327 -18.8413 96.9564
lradius 132.658
lwrist 15.5658
lhand -28.4389 -20.1499
lfingers 7.12502
lthumb -1.80981 9.82216
rfemur -64.0034 -10.9947 15.6746
rtibia 89.048
rfoot -16.92 -10.2718
rtoes -32.0414
lfemur -24.4109 -2.95727 -28.7426
ltibia 50.9176
lfoot -23.0209 -16.987
ltoes -2.69641
22
root 2.11402 16.5211 -42.2273 28.4156 -5.03557 4.71101
lowerback 12.3643 -3.08674 -0.37424
upperback -1.77331 -3.99704 2.02662
thorax -8.66793 -1.85664 3.15551
lowerneck -21.8875 2.90115 0.379921
upperneck -0.403131 4.04515 -5.43262
head 3.40172 1.6781 -1.39895
rclavicle 2.0276e-014 4.13472e-014
rhumerus -79.4267 1.50859 -79.5422
rradius 93.9001
rwrist -8.03244
rhand -29.5324 9.99503
rfingers 7.12502
rthumb -2.86586 -19.9655
lclavicle 2.0276e-014 4.13472e-014
lhumerus -20.4162 -19.3917 96.1832
lradius 135.028
lwrist 16.136
lhand -28.3125 -20.3435
lfingers 7.12502
lthumb -1.6877 9.62955
rfemur -65.874 -10.4346 15.5371
rtibia 87.1997
rfoot -17.1079 -10.0286
rtoes -32.63
lfemur -22.0488 -3.13151 -28.5964
ltibia 48.4777
lfoot -20.4778 -17.3239
ltoes -4.09267
23
root 2.07403 16.5947 -41.829 28.2781 -5.29729 4.57514
lowerback 12.1799 -3.17701 -0.282715
upperback -1.75113 -4.09849 2.10614
thorax -8.53332 -1.91152 3.19385
lowerneck -21.9657 3.09548 0.416477
upperneck -0.186098 4.31212 -5.55178
head 3.49247 1.79734 -1.41516
rclavicle 8.15017e-015 -2.34566e-014
rhumerus -81.0061 1.80418 -78.7141
rradius 94.5373
rwrist -7.42676
rhand -29.2836 10.2633
rfingers 7.12502
rthumb -2.6256 -19.7002
lclavicle 8.15017e-015 -2.34566e-014
lhumerus -20.2805 -20.1314 95.4458
lradius 137.07
lwrist 16.5702
lhand -27.9405 -20.6328
lfingers 7.12502
lthumb -1.32844 9.34282
rfemur -67.3416 -9.75123 15.385
rtibia 84.9771
rfoot -17.2266 -9.74587
rtoes -33.3676
lfemur -19.7366 -3.35016 -28.4705
ltibia 46.1385
lfoot -17.278 -17.5892
ltoes -5.3436
24
root 2.03478 16.6725 -41.4235 28.0566 -5.67525 4.3974
lowerback 12.0691 -3.19967 -0.185952
upperback -1.6951 -4.11086 2.1618
thorax -8.41106 -1.92375 3.19023
lowerneck -22.0508 3.25815 0.42998
upperneck 0.0250017 4.54361 -5.67312
head 3.58143 1.89846 -1.43125
rclavicle 2.62396e-014 -1.59028e-015
rhumerus -82.2377 2.01022 -77.932
rradius 95.0011
rwrist -6.85947
rhand -29.0413 10.4339
rfingers 7.12502
rthumb -2.39158 -19.5325
lclavicle 2.62396e-014 -1.59028e-015
lhumerus -20.4416 -21.058 94.8219
lradius 138.721
lwrist 16.6533
lhand -27.3826 -20.9077
lfingers 7.12502
lthumb -0.789582 9.07062
rfemur -68.3906 -8.98824 15.2133
rtibia 82.4632
rfoot -17.2805 -9.40335
rtoes -34.2557
lfemur -17.5184 -3.68859 -28.3928
ltibia 43.946
lfoot -13.2281 -17.73
ltoes -6.28587
25
root 1.99591 16.7513 -41.0126 27.7471 -6.13074 4.20813
lowerback 12.0437 -3.16759 -0.106938
upperback -1.60799 -4.05389 2.1991
thorax -8.3079 -1.90136 3.16867
lowerneck -22.1295 3.39235 0.427272
upperneck 0.218625 4.74216 -5.80701
head 3.66353 1.9826 -1.45162
rclavicle -2.78299e-014 1.59028e-014
rhumerus -83.0902 2.14412 -77.2016
rradius 95.2972
rwrist -6.43435
rhand -28.769 10.4496
rfingers 7.12502
rthumb -2.12866 -19.5195
lclavicle -2.78299e-014 1.59028e-014
lhumerus -20.9186 -22.1278 94.3792
lradius 139.935
lwrist 16.2967
lhand -26.7037 -21.1397
lfingers 7.12502
lthumb -0.133886 8.84002
rfemur -69.0365 -8.20942 15.0335
rtibia 79.764
rfoot -17.2536 -9.00009
rtoes -35.28
lfemur -15.4187 -4.20506 -28.3882
ltibia 41.9483
lfoot -8.3027 -17.6404
ltoes -7.2486
26
root 1.95686 16.8279 -40.5986 27.3637 -6.63957 4.03762
lowerback 12.0981 -3.08957 -0.0732919
upperback -1.49722 -3.94351 2.2156
thorax -8.22582 -1.85083 3.14503
lowerneck -22.2081 3.50264 0.42224
upperneck 0.407108 4.91096 -5.95209
head 3.74383 2.05111 -1.47774
rclavicle 1.15295e-014 -3.65764e-014
rhumerus -83.5383 2.21245 -76.5396
rradius 95.419
rwrist -6.17654
rhand -28.4525 10.3139
rfingers 7.12502
rthumb -1.82291 -19.6581
lclavicle 1.15295e-014 -3.65764e-014
lhumerus -21.718 -23.2896 94.1527
lradius 140.677
lwrist 15.4861
lhand -26.0018 -21.3217
lfingers 7.12502
lthumb 0.54397 8.65731
rfemur -69.3298 -7.46019 14.8524
rtibia 76.9922
rfoot -17.1328 -8.53835
rtoes -36.373
lfemur -13.4915 -4.92855 -28.4856
ltibia 40.2214
lfoot -2.68452 -17.2778
ltoes -8.05818
